<svg id="RemoteInclude" xmlns="http://www.w3.org/2000/svg" xmlns:xlink="http://www.w3.org/1999/xlink" viewBox="0 0 898 898"><defs><style>.cls-1{fill:none;}.cls-2{fill:#fff;}.cls-3{fill:#2c2c2c;}.cls-4{clip-path:url(#clip-path);}.cls-5{fill:#064f8c;}.cls-6{fill:#249847;}.cls-7{fill:#be2128;}.cls-8{fill:#cdcdce;}</style><clipPath id="clip-path" transform="translate(0 0)"><circle id="Circle" class="cls-1" cx="449" cy="449" r="449"/></clipPath></defs><title>Logo</title><g id="Understroke"><path class="cls-2" d="M449,813A364.00048,364.00048,0,0,1,191.61279,191.61279,364.00014,364.00014,0,1,1,706.38672,706.38672,361.61484,361.61484,0,0,1,449,813Z" transform="translate(0 0)"/><path class="cls-3" d="M449,170a279.00052,279.00052,0,1,1-197.28264,81.71736A277.172,277.172,0,0,1,449,170M449,0C201.02422,0,0,201.02422,0,449S201.02422,898,449,898,898,696.97577,898,449,696.97577,0,449,0Z" transform="translate(0 0)"/></g><g id="Circular_Mask" data-name="Circular Mask"><g class="cls-4"><g id="CMake"><g id="Colors_Big_" data-name="Colors (Big)"><polygon id="Blue_Small_" data-name="Blue (Small)" class="cls-5" points="473.069 0 0 0 0 716.14 499.315 293.632 473.069 0"/><polygon id="Grenn_Small_" data-name="Grenn (Small)" class="cls-6" points="898 731.23 300.985 490.377 0 745.064 0 898 898 898 898 731.23"/><polygon id="Red_Small_" data-name="Red (Small)" class="cls-7" points="898 706.362 898 0 496.377 0 546.669 564.627 898 706.362"/></g><g id="Center_Big_" data-name="Center (Big)"><polygon id="Triangle_Big_" data-name="Triangle (Big)" class="cls-8" points="320.886 473.537 501.627 320.599 522.493 554.873 320.886 473.537"/></g></g></g></g><g id="Upperstroke"><path class="cls-3" d="M449,14A435.11841,435.11841,0,0,1,618.31726,849.82129,435.11624,435.11624,0,0,1,279.68271,48.17871,432.26343,432.26343,0,0,1,449,14m0-14C201.02414,0,0,201.02414,0,449S201.02414,898,449,898,898,696.97583,898,449,696.97583,0,449,0Z" transform="translate(0 0)"/></g></svg>