<svg id="RemoteInclude" xmlns="http://www.w3.org/2000/svg" xmlns:xlink="http://www.w3.org/1999/xlink" viewBox="0 0 898 90.15571"><defs><style>.cls-1{fill:none;}.cls-2{clip-path:url(#clip-path);}.cls-3{fill:#fff;}.cls-4{fill:#2c2c2c;}.cls-5{clip-path:url(#clip-path-3);}.cls-6{fill:#064f8c;}.cls-7{fill:#249847;}.cls-8{fill:#be2128;}.cls-9{fill:#cdcdce;}</style><clipPath id="clip-path" transform="translate(0 -1)"><rect class="cls-1" x="269.06931" y="26.15975" width="64.67822" height="64.99593"/></clipPath><clipPath id="clip-path-3" transform="translate(0 -1)"><ellipse class="cls-1" cx="301.40842" cy="58.65771" rx="32.33911" ry="32.49796"/></clipPath></defs><title>RemoteInclude</title><g id="RemoteInclude-2" data-name="RemoteInclude"><path d="M12.13528,78.32252V12.05577H0V1H35.89683Q47.14244,1,53.75032,2.74787a19.90469,19.90469,0,0,1,10.9279,7.36921q4.32,5.62427,4.32051,14.00758,0,17.53382-18.21694,22.04465L66.39364,78.32252h10.801V89.37731h-19.142L37.93,48.07948H25.47745v30.243h11.309V89.37731H0V78.32252ZM25.47745,37.0247H35.89683a45.84468,45.84468,0,0,0,11.15068-.9846,10.77837,10.77837,0,0,0,5.87658-4.00329,13.08575,13.08575,0,0,0,2.28738-8.1,11.55828,11.55828,0,0,0-2.31886-7.30724,10.00251,10.00251,0,0,0-5.71821-3.78,49.64962,49.64962,0,0,0-10.3879-.79377h-11.309Z" transform="translate(0 -1)"/><path d="M146.70141,61.67591H94.98421A22.3787,22.3787,0,0,0,101.719,75.46317q5.5896,5.2746,14.29528,5.27313a23.43384,23.43384,0,0,0,20.0135-10.1656l10.67364,4.70165a32.1689,32.1689,0,0,1-13.533,11.97643A40.49876,40.49876,0,0,1,115.76,91.15567,35.25446,35.25446,0,0,1,91.64879,82.3563Q81.64179,73.55694,81.642,58.62673q0-14.16842,9.75249-23.31745a31.789,31.789,0,0,1,22.3958-9.14953q12.38979,0,22.45974,8.92723Q146.319,44.01324,146.70141,61.67591Zm-12.453-8.76789a21.98958,21.98958,0,0,0-6.73428-11.72167,18.63108,18.63108,0,0,0-13.4061-5.24166,17.65639,17.65639,0,0,0-12.389,4.73313A20.20243,20.20243,0,0,0,95.4288,52.908Z" transform="translate(0 -1)"/><path d="M165.95212,78.63924v-40.026h-10.229V27.87516H178.024V35.627q10.90922-8.70348,21.37334-8.70495,10.52783,0,14.52349,9.59413,12.0084-9.59314,22.36433-9.59413a16.99669,16.99669,0,0,1,9.81642,2.63706,12.90716,12.90716,0,0,1,5.17772,6.67084q1.33451,4.03673,1.33426,11.91348V78.63924H263.3511V89.37731H240.54218V50.30342a40.51407,40.51407,0,0,0-.47656-7.52953,5.98458,5.98458,0,0,0-2.41427-3.62066,7.651,7.651,0,0,0-4.67018-1.43017q-7.75182,0-17.59874,7.94166V78.63924h10.54675V89.37731H203.31059V49.15948q0-6.03444-1.74295-8.73543-1.74246-2.7-5.92576-2.701-6.8437,0-17.61792,7.94166V78.63924h10.801V89.37731h-33.8642V78.63924Z" transform="translate(0 -1)"/><path d="M342.6428,38.61322V27.87516h8.00511V18.4089L362.71975,7.35412v20.521h11.37249V38.61322H362.71975v29.8614q0,7.17937.79377,8.86232.79377,1.68493,3.97132,1.68394a17.9414,17.9414,0,0,0,6.6074-1.27082V88.7419a27.508,27.508,0,0,1-9.27593,1.65148,15.094,15.094,0,0,1-8.95871-2.44624,10.41329,10.41329,0,0,1-4.32-6.13084q-.8904-3.68411-.88967-12.70725V38.61322Z" transform="translate(0 -1)"/><path d="M447.72868,61.67591h-51.7172a22.3787,22.3787,0,0,0,6.73478,13.78726q5.5896,5.2746,14.29529,5.27313a23.43386,23.43386,0,0,0,20.0135-10.1656l10.67363,4.70165a32.16884,32.16884,0,0,1-13.533,11.97643,40.49876,40.49876,0,0,1-17.40841,3.90689,35.25448,35.25448,0,0,1-24.11122-8.79937q-10.007-8.79936-10.00675-23.72957,0-14.16842,9.75249-23.31745a31.789,31.789,0,0,1,22.39581-9.14953q12.38979,0,22.45973,8.92723Q447.34632,44.01324,447.72868,61.67591ZM435.2757,52.908a21.98971,21.98971,0,0,0-6.73428-11.72167,18.6311,18.6311,0,0,0-13.40611-5.24166,17.65639,17.65639,0,0,0-12.389,4.73313,20.20242,20.20242,0,0,0-6.29018,12.2302Z" transform="translate(0 -1)"/><path d="M466.2171,78.32252V12.05577h-9.52921V1H489.09V12.05577h-9.53117V78.32252H489.09V89.37731H456.68789V78.32252Z" transform="translate(0 -1)"/><path d="M519.64873,27.87516v7.43412Q531.27794,26.923,540.86912,26.922a16.43547,16.43547,0,0,1,9.88134,2.82788,13.00873,13.00873,0,0,1,5.1128,6.92559A44.99956,44.99956,0,0,1,557.07114,48.651V78.63924h10.35544V89.37731h-22.4263V49.15948q0-6.98756-2.097-9.11707a6.94876,6.94876,0,0,0-5.14625-2.12853q-8.00559,0-18.10825,7.81478V78.63924h10.61118V89.37731H496.77784V78.63924h10.8v-40.026h-10.8V27.87516Z" transform="translate(0 -1)"/><path d="M630.771,27.87516V51.12965h-10.8a14.55471,14.55471,0,0,0-5.43149-10.22953,17.025,17.025,0,0,0-10.70561-3.55772,16.81055,16.81055,0,0,0-13.21577,5.7492q-5.08428,5.75117-5.08329,15.08955a25.39484,25.39484,0,0,0,4.82952,15.34431q4.82756,6.63936,13.97709,6.63936,12.70626,0,18.425-12.07184l9.97577,4.70166q-8.26233,18.36153-28.90829,18.361-14.61545,0-23.00072-9.97478a34.69429,34.69429,0,0,1-8.38625-22.99974q0-13.91316,9.14953-22.96728,9.14757-9.05315,21.09252-9.05412a25.662,25.662,0,0,1,17.282,6.03641v-4.321Z" transform="translate(0 -1)"/><path d="M649.196,78.63924V11.73806h-10.9279V1h23.00073V78.63924h9.4033V89.37731h-32.404V78.63924Z" transform="translate(0 -1)"/><path d="M745.64283,78.63924V89.37731h-22.682V82.32483q-10.61118,8.069-20.33121,8.06855a17.9587,17.9587,0,0,1-10.19806-2.7,12.88466,12.88466,0,0,1-5.36854-6.98855q-1.33377-4.289-1.33377-13.81873V38.61322h-8.705V27.87516h20.7758V65.36052a69.85412,69.85412,0,0,0,.38164,9.14953,6.14837,6.14837,0,0,0,2.22493,3.87542,7.02463,7.02463,0,0,0,4.63673,1.5246q8.38626,0,17.91743-8.00462V38.61322H712.09585V27.87516h22.93581V78.63924Z" transform="translate(0 -1)"/><path d="M827.9198,78.63924V89.37731H804.79317V80.35466q-9.02363,10.04019-21.98367,10.03872A30.52346,30.52346,0,0,1,761.717,82.19794Q752.63138,74.002,752.6304,58.8805q0-15.185,9.34035-23.95286,9.33938-8.76691,21.09449-8.76789,12.44953,0,21.72793,9.91183V11.73806H792.97609V1H816.864V78.63924ZM765.52945,58.56279q0,10.16561,5.75018,15.62955a19.67695,19.67695,0,0,0,27.50959-.28623q6.00494-5.74968,6.004-15.9148,0-10.229-6.13182-15.43971a20.70324,20.70324,0,0,0-13.7548-5.2092,17.92254,17.92254,0,0,0-13.78626,6.13084A21.56611,21.56611,0,0,0,765.52945,58.56279Z" transform="translate(0 -1)"/><path d="M898,61.67591H846.28182a22.393,22.393,0,0,0,6.73379,13.78726q5.59182,5.2746,14.29578,5.27313a23.43376,23.43376,0,0,0,20.01448-10.1656L898,75.27235a32.16974,32.16974,0,0,1-13.53447,11.97643,40.49662,40.49662,0,0,1-17.40792,3.90689,35.26045,35.26045,0,0,1-24.1122-8.79937q-10.00626-8.79936-10.00527-23.72957,0-14.16842,9.7515-23.31745a31.7913,31.7913,0,0,1,22.39679-9.14953q12.38757,0,22.45974,8.92723Q897.6164,44.01324,898,61.67591ZM885.54554,52.908a21.99826,21.99826,0,0,0-6.73379-11.72167,18.62984,18.62984,0,0,0-13.4066-5.24166,17.65927,17.65927,0,0,0-12.38954,4.73313,20.20385,20.20385,0,0,0-6.2892,12.2302Z" transform="translate(0 -1)"/></g><g id="CMake"><g class="cls-2"><g class="cls-2"><path class="cls-3" d="M301.40842,85.0035a26.37287,26.37287,0,0,1-18.53823-44.97509A26.28165,26.28165,0,0,1,319.94665,77.287a25.98089,25.98089,0,0,1-18.53823,7.7165" transform="translate(0 -1)"/><path class="cls-4" d="M301.40842,38.4641a20.14438,20.14438,0,1,1-14.20926,5.91456,19.9139,19.9139,0,0,1,14.20926-5.91456m0-12.30435a32.49835,32.49835,0,1,0,32.33911,32.498,32.41881,32.41881,0,0,0-32.33911-32.498" transform="translate(0 -1)"/></g><g class="cls-5"><polygon class="cls-6" points="303.142 25.16 269.069 25.16 269.069 76.993 305.032 46.412 303.142 25.16"/><polygon class="cls-7" points="333.748 78.085 290.748 60.652 269.069 79.086 269.069 90.156 333.748 90.156 333.748 78.085"/><polygon class="cls-8" points="333.748 76.285 333.748 25.16 304.821 25.16 308.443 66.027 333.748 76.285"/><polygon class="cls-9" points="292.181 59.434 305.199 48.364 306.702 65.321 292.181 59.434"/></g><g class="cls-2"><path class="cls-4" d="M301.40842,27.17305a31.15352,31.15352,0,0,1,22.15424,9.22167,31.546,31.546,0,0,1-9.95923,51.27383,31.20382,31.20382,0,0,1-34.34917-6.74778,31.54621,31.54621,0,0,1,9.95915-51.2739,31.00252,31.00252,0,0,1,12.195-2.47382m0-1.0133a32.49835,32.49835,0,1,0,32.33911,32.498,32.41881,32.41881,0,0,0-32.33911-32.498" transform="translate(0 -1)"/></g></g></g></svg>